<?xml version="1.0" encoding="utf-8"?>
<!-- Generator: Adobe Illustrator 21.0.2, SVG Export Plug-In . SVG Version: 6.00 Build 0)  -->
<svg version="1.1" id="Layer_1" xmlns="http://www.w3.org/2000/svg" xmlns:xlink="http://www.w3.org/1999/xlink" x="0px" y="0px"
	 viewBox="0 0 78.3 60.5" style="enable-background:new 0 0 78.3 60.5;" xml:space="preserve">
<style type="text/css">
	.st0{fill:#FEE000;}
	.st1{fill:#2B3283;}
</style>
<g>
	<g>
		<polygon class="st0" points="64.4,55.2 16.6,55.2 16.6,50.5 59.7,50.5 59.7,10 16.6,10 16.6,5.3 64.4,5.3 		"/>
	</g>
	<g>
		<path class="st1" d="M30,14.3v13.4h4.5c2.5,0,4.5-0.5,6-1.6c1.5-1.1,2.2-2.7,2.2-5c0-2.1-0.7-3.8-2.1-5c-1.4-1.2-3.4-1.8-6.1-1.8
			H30z M13.9,5.3H37c2.6,0,4.9,0.4,7.1,1.2c2.2,0.8,4,1.9,5.6,3.2c1.6,1.4,2.8,2.9,3.7,4.7c0.9,1.8,1.3,3.6,1.3,5.6
			c0,2.3-0.3,4.5-1,6.5c-0.7,2-1.8,3.8-3.2,5.3c-1.4,1.5-3.3,2.7-5.5,3.5c-2.2,0.9-4.8,1.3-7.9,1.3h-7v9.5h4.6v9H13.9v-9h5.2V14.3
			h-5.2V5.3z"/>
	</g>
</g>
</svg>
