<?xml version="1.0" encoding="utf-8"?>
<!-- Generator: Adobe Illustrator 21.0.2, SVG Export Plug-In . SVG Version: 6.00 Build 0)  -->
<svg version="1.1" id="Layer_1" xmlns="http://www.w3.org/2000/svg" xmlns:xlink="http://www.w3.org/1999/xlink" x="0px" y="0px"
	 viewBox="0 0 34 34" style="enable-background:new 0 0 34 34;" xml:space="preserve">
<style type="text/css">
	.st0{fill:url(#SVGID_1_);}
	.st1{fill:url(#SVGID_2_);}
	.st2{fill:url(#SVGID_3_);}
	.st3{fill:#2B3283;}
	.st4{fill:#2FAAE1;}
	.st5{fill:#CE2127;}
	.st6{fill:#FFFFFF;}
	.st7{fill:#E8E0E0;}
</style>
<g>
	
		<linearGradient id="SVGID_1_" gradientUnits="userSpaceOnUse" x1="17" y1="3.7876" x2="17" y2="34.0638" gradientTransform="matrix(1 0 0 -1 0 36)">
		<stop  offset="0" style="stop-color:#E19C3D"/>
		<stop  offset="0.3" style="stop-color:#C74D4E"/>
		<stop  offset="0.6" style="stop-color:#C21C76"/>
		<stop  offset="1" style="stop-color:#6A479C"/>
	</linearGradient>
	<path class="st0" d="M23.2,1.7H10.8c-5,0-9.1,4.1-9.1,9.1v12.4c0,5,4.1,9.1,9.1,9.1h12.4c5,0,9.1-4.1,9.1-9.1V10.8
		C32.3,5.8,28.2,1.7,23.2,1.7z M29.2,23.2c0,3.3-2.7,6-6,6H10.8c-3.3,0-6-2.7-6-6V10.8c0-3.3,2.7-6,6-6h12.4c3.3,0,6,2.7,6,6V23.2
		L29.2,23.2z"/>
	
		<linearGradient id="SVGID_2_" gradientUnits="userSpaceOnUse" x1="17" y1="3.7876" x2="17" y2="34.0638" gradientTransform="matrix(1 0 0 -1 0 36)">
		<stop  offset="0" style="stop-color:#E19C3D"/>
		<stop  offset="0.3" style="stop-color:#C74D4E"/>
		<stop  offset="0.6" style="stop-color:#C21C76"/>
		<stop  offset="1" style="stop-color:#6A479C"/>
	</linearGradient>
	<path class="st1" d="M17,9.1c-4.4,0-7.9,3.6-7.9,7.9s3.6,7.9,7.9,7.9s7.9-3.6,7.9-7.9S21.4,9.1,17,9.1z M17,21.8
		c-2.7,0-4.8-2.2-4.8-4.8s2.2-4.8,4.8-4.8c2.7,0,4.8,2.2,4.8,4.8C21.8,19.7,19.7,21.8,17,21.8z"/>
	
		<linearGradient id="SVGID_3_" gradientUnits="userSpaceOnUse" x1="24.9303" y1="3.7876" x2="24.9303" y2="34.0638" gradientTransform="matrix(1 0 0 -1 0 36)">
		<stop  offset="0" style="stop-color:#E19C3D"/>
		<stop  offset="0.3" style="stop-color:#C74D4E"/>
		<stop  offset="0.6" style="stop-color:#C21C76"/>
		<stop  offset="1" style="stop-color:#6A479C"/>
	</linearGradient>
	<circle class="st2" cx="24.9" cy="9.1" r="1.9"/>
</g>
</svg>
