<?xml version="1.0" encoding="utf-8"?>
<!-- Generator: Adobe Illustrator 21.0.2, SVG Export Plug-In . SVG Version: 6.00 Build 0)  -->
<svg version="1.1" id="Layer_1" xmlns="http://www.w3.org/2000/svg" xmlns:xlink="http://www.w3.org/1999/xlink" x="0px" y="0px"
	 viewBox="0 0 34 34" style="enable-background:new 0 0 34 34;" xml:space="preserve">
<style type="text/css">
	.st0{fill:url(#SVGID_1_);}
	.st1{fill:url(#SVGID_2_);}
	.st2{fill:url(#SVGID_3_);}
	.st3{fill:#2B3283;}
	.st4{fill:#2FAAE1;}
	.st5{fill:#CE2127;}
	.st6{fill:#FFFFFF;}
	.st7{fill:#E8E0E0;}
</style>
<g>
	
		<linearGradient id="SVGID_1_" gradientUnits="userSpaceOnUse" x1="-29.41" y1="3.7876" x2="-29.41" y2="34.0638" gradientTransform="matrix(1 0 0 -1 0 36)">
		<stop  offset="0" style="stop-color:#E19C3D"/>
		<stop  offset="0.3" style="stop-color:#C74D4E"/>
		<stop  offset="0.6" style="stop-color:#C21C76"/>
		<stop  offset="1" style="stop-color:#6A479C"/>
	</linearGradient>
	<path class="st0" d="M-23.2,1.7h-12.4c-5,0-9.1,4.1-9.1,9.1v12.4c0,5,4.1,9.1,9.1,9.1h12.4c5,0,9.1-4.1,9.1-9.1V10.8
		C-14.1,5.8-18.2,1.7-23.2,1.7z M-17.2,23.2c0,3.3-2.7,6-6,6h-12.4c-3.3,0-6-2.7-6-6V10.8c0-3.3,2.7-6,6-6h12.4c3.3,0,6,2.7,6,6
		L-17.2,23.2L-17.2,23.2z"/>
	
		<linearGradient id="SVGID_2_" gradientUnits="userSpaceOnUse" x1="-29.41" y1="3.7876" x2="-29.41" y2="34.0638" gradientTransform="matrix(1 0 0 -1 0 36)">
		<stop  offset="0" style="stop-color:#E19C3D"/>
		<stop  offset="0.3" style="stop-color:#C74D4E"/>
		<stop  offset="0.6" style="stop-color:#C21C76"/>
		<stop  offset="1" style="stop-color:#6A479C"/>
	</linearGradient>
	<path class="st1" d="M-29.4,9.1c-4.4,0-7.9,3.6-7.9,7.9s3.6,7.9,7.9,7.9s7.9-3.6,7.9-7.9S-25,9.1-29.4,9.1z M-29.4,21.8
		c-2.7,0-4.8-2.2-4.8-4.8s2.2-4.8,4.8-4.8c2.7,0,4.8,2.2,4.8,4.8C-24.6,19.7-26.7,21.8-29.4,21.8z"/>
	
		<linearGradient id="SVGID_3_" gradientUnits="userSpaceOnUse" x1="-21.4797" y1="3.7876" x2="-21.4797" y2="34.0638" gradientTransform="matrix(1 0 0 -1 0 36)">
		<stop  offset="0" style="stop-color:#E19C3D"/>
		<stop  offset="0.3" style="stop-color:#C74D4E"/>
		<stop  offset="0.6" style="stop-color:#C21C76"/>
		<stop  offset="1" style="stop-color:#6A479C"/>
	</linearGradient>
	<circle class="st2" cx="-21.5" cy="9.1" r="1.9"/>
</g>
<g>
	<g>
		<g>
			<path class="st3" d="M-41-12.9h4.1v-9.8h2.7c0,0,0.3-1.6,0.4-3.3H-37v-2.3c0-0.3,0.4-0.8,0.9-0.8h2.2v-3.4h-3
				c-4.3,0-4.2,3.3-4.2,3.8v2.7h-2v3.3h2V-12.9z M-41-12.9"/>
		</g>
	</g>
	<path class="st3" d="M-32.5-38.3h-12.4c-5,0-9.1,4.1-9.1,9.1v12.4c0,5,4.1,9.1,9.1,9.1h12.4c5,0,9.1-4.1,9.1-9.1v-12.4
		C-23.4-34.2-27.5-38.3-32.5-38.3z M-26.5-16.8c0,3.3-2.7,6-6,6h-12.4c-3.3,0-6-2.7-6-6v-12.4c0-3.3,2.7-6,6-6h12.4c3.3,0,6,2.7,6,6
		L-26.5-16.8L-26.5-16.8z"/>
</g>
<g>
	<path class="st4" d="M26.8,10.9c-0.7,0.3-1.5,0.5-2.3,0.6c0.8-0.5,1.5-1.3,1.8-2.2c-0.8,0.5-1.6,0.8-2.5,1
		c-0.7-0.8-1.8-1.3-2.9-1.3c-2.2,0-4,1.8-4,4c0,0.3,0,0.6,0.1,0.9c-3.3-0.2-6.3-1.8-8.3-4.2c-0.3,0.6-0.5,1.3-0.5,2
		c0,1.4,0.7,2.6,1.8,3.3c-0.6,0-1.3-0.2-1.8-0.5v0.1c0,1.9,1.4,3.6,3.2,3.9c-0.3,0.1-0.7,0.1-1.1,0.1c-0.3,0-0.5,0-0.8-0.1
		c0.5,1.6,2,2.7,3.7,2.8c-1.4,1.1-3.1,1.7-5,1.7c-0.3,0-0.6,0-1-0.1c1.8,1.1,3.9,1.8,6.1,1.8c7.4,0,11.4-6.1,11.4-11.4
		c0-0.2,0-0.3,0-0.5C25.5,12.5,26.2,11.8,26.8,10.9L26.8,10.9z"/>
	<path class="st4" d="M23.2,1.7H10.8c-5,0-9.1,4.1-9.1,9.1v12.4c0,5,4.1,9.1,9.1,9.1h12.4c5,0,9.1-4.1,9.1-9.1V10.8
		C32.3,5.8,28.2,1.7,23.2,1.7z M29.2,23.2c0,3.3-2.7,6-6,6H10.8c-3.3,0-6-2.7-6-6V10.8c0-3.3,2.7-6,6-6h12.4c3.3,0,6,2.7,6,6V23.2
		L29.2,23.2z"/>
</g>
<path class="st5" d="M162,1.5h-12.4c-5,0-9.1,4.1-9.1,9.1V23c0,5,4.1,9.1,9.1,9.1H162c5,0,9.1-4.1,9.1-9.1V10.6
	C171.2,5.6,167.1,1.5,162,1.5z M168.1,23c0,3.3-2.7,6-6,6h-12.4c-3.3,0-6-2.7-6-6V10.6c0-3.3,2.7-6,6-6H162c3.3,0,6,2.7,6,6V23
	L168.1,23z"/>
<g>
	<path class="st6" d="M158.3,16.7c-1.3-0.7-2.6-1.4-3.9-2v4.1C155.7,17.9,157.2,17.3,158.3,16.7L158.3,16.7L158.3,16.7z"/>
	<path class="st7" d="M158.3,16.7c-1.3-0.7-3.9-2-3.9-2l3.4,2.3C157.8,16.9,157.2,17.3,158.3,16.7L158.3,16.7z"/>
	<path class="st5" d="M154.6,21.9c-2.8-0.1-3.7-0.1-4.3-0.2c-0.4-0.1-0.7-0.3-1-0.5c-0.2-0.2-0.3-0.5-0.5-0.9
		c-0.1-0.3-0.1-0.6-0.2-1.3c-0.1-1.6-0.1-2.8,0-4.3c0.1-0.8,0.1-1.7,0.7-2.3c0.3-0.3,0.6-0.4,1-0.5c0.6-0.1,3-0.2,5.5-0.2
		c2.5,0,4.9,0.1,5.5,0.2c0.5,0.1,0.9,0.3,1.1,0.7c0.5,0.8,0.5,1.9,0.6,2.7c0,0.4,0,2.6,0,3c-0.1,1.3-0.2,1.8-0.3,2.2
		c-0.1,0.3-0.2,0.5-0.4,0.6c-0.3,0.3-0.6,0.5-1,0.5C158.9,21.9,156.9,21.9,154.6,21.9L154.6,21.9z M158.3,16.7
		c-1.3-0.7-2.6-1.4-3.9-2.1v4.1C155.7,17.9,157.2,17.3,158.3,16.7L158.3,16.7L158.3,16.7z"/>
</g>
</svg>
