<?xml version="1.0" encoding="utf-8"?>
<!-- Generator: Adobe Illustrator 21.0.2, SVG Export Plug-In . SVG Version: 6.00 Build 0)  -->
<svg version="1.1" id="Layer_1" xmlns="http://www.w3.org/2000/svg" xmlns:xlink="http://www.w3.org/1999/xlink" x="0px" y="0px"
	 viewBox="0 0 34 34" style="enable-background:new 0 0 34 34;" xml:space="preserve">
<style type="text/css">
	.st0{fill:url(#SVGID_1_);}
	.st1{fill:url(#SVGID_2_);}
	.st2{fill:url(#SVGID_3_);}
	.st3{fill:#2B3283;}
	.st4{fill:#2FAAE1;}
	.st5{fill:#CE2127;}
	.st6{fill:#FFFFFF;}
	.st7{fill:#E8E0E0;}
</style>
<g>
	<path class="st5" d="M23.2,1.7H10.8c-5,0-9.1,4.1-9.1,9.1v12.4c0,5,4.1,9.1,9.1,9.1h12.4c5,0,9.1-4.1,9.1-9.1V10.8
		C32.3,5.8,28.2,1.7,23.2,1.7z M29.2,23.2c0,3.3-2.7,6-6,6H10.8c-3.3,0-6-2.7-6-6V10.8c0-3.3,2.7-6,6-6h12.4c3.3,0,6,2.7,6,6V23.2
		L29.2,23.2z"/>
	<g>
		<path class="st6" d="M19.4,16.9c-1.3-0.7-2.6-1.4-3.9-2v4.1C16.9,18.1,18.3,17.5,19.4,16.9L19.4,16.9L19.4,16.9z"/>
		<path class="st7" d="M19.4,16.9c-1.3-0.7-3.9-2-3.9-2l3.4,2.3C18.9,17.1,18.3,17.5,19.4,16.9L19.4,16.9z"/>
		<path class="st5" d="M15.8,22.1C13,22,12,22,11.5,21.9c-0.4-0.1-0.7-0.3-1-0.5c-0.2-0.2-0.3-0.5-0.5-0.9c-0.1-0.3-0.1-0.6-0.2-1.3
			c-0.1-1.6-0.1-2.8,0-4.3c0.1-0.8,0.1-1.7,0.7-2.3c0.3-0.3,0.6-0.4,1-0.5c0.6-0.1,3-0.2,5.5-0.2c2.5,0,4.9,0.1,5.5,0.2
			c0.5,0.1,0.9,0.3,1.1,0.7c0.5,0.8,0.5,1.9,0.6,2.7c0,0.4,0,2.6,0,3c-0.1,1.3-0.2,1.8-0.3,2.2c-0.1,0.3-0.2,0.5-0.4,0.6
			c-0.3,0.3-0.6,0.5-1,0.5C20.1,22.1,18.1,22.1,15.8,22.1L15.8,22.1z M19.4,16.9c-1.3-0.7-2.6-1.4-3.9-2.1v4.1
			C16.9,18.1,18.3,17.5,19.4,16.9L19.4,16.9L19.4,16.9z"/>
	</g>
</g>
</svg>
